<svg width="23" height="26" viewBox="0 0 23 26" fill="none" xmlns="http://www.w3.org/2000/svg">
<path d="M21.1702 6.175L17.3327 2.3375C16.1577 1.1625 14.5702 0.5 12.9077 0.5H6.74518C2.99518 0.5 0.495178 3 0.495178 6.75V19.25C0.495178 23 2.99518 25.5 6.74518 25.5H16.7452C20.4952 25.5 22.9952 23 22.9952 19.25V10.5875C22.9952 8.925 22.3327 7.3375 21.1702 6.175ZM9.28268 19.8375C9.64518 20.2 9.64518 20.8 9.28268 21.1625C9.09518 21.35 8.85768 21.4375 8.62018 21.4375C8.38268 21.4375 8.14518 21.35 7.95768 21.1625L5.45768 18.6625C5.09518 18.3 5.09518 17.7 5.45768 17.3375L7.95768 14.8375C8.32018 14.475 8.92018 14.475 9.28268 14.8375C9.64518 15.2 9.64518 15.8 9.28268 16.1625L7.44518 18L9.28268 19.8375ZM18.0327 18.6625L15.5327 21.1625C15.3452 21.35 15.1077 21.4375 14.8702 21.4375C14.6327 21.4375 14.3952 21.35 14.2077 21.1625C13.8452 20.8 13.8452 20.2 14.2077 19.8375L16.0452 18L14.2077 16.1625C13.8452 15.8 13.8452 15.2 14.2077 14.8375C14.5702 14.475 15.1702 14.475 15.5327 14.8375L18.0327 17.3375C18.3952 17.7 18.3952 18.3 18.0327 18.6625Z" fill="#1AAB7B"/>
</svg>
