<svg width="14" height="24" viewBox="0 0 14 24" fill="none" xmlns="http://www.w3.org/2000/svg">
<path d="M13.4096 0.00978209H10.3008C6.80743 0.00978209 4.55478 2.32778 4.55478 5.91578V8.63878H1.42404C1.35981 8.63878 1.2962 8.65146 1.23687 8.6761C1.17754 8.70074 1.12364 8.73685 1.07827 8.78236C1.0329 8.82787 0.996935 8.8819 0.972445 8.94134C0.947955 9.00079 0.935417 9.06448 0.935548 9.12878V13.0748C0.935548 13.2045 0.987014 13.3289 1.07862 13.4206C1.17023 13.5123 1.29448 13.5638 1.42404 13.5638H4.55478V23.5198C4.55478 23.584 4.56741 23.6476 4.59196 23.7069C4.61651 23.7662 4.65249 23.8202 4.69785 23.8656C4.74322 23.911 4.79706 23.947 4.85633 23.9716C4.9156 23.9961 4.97912 24.0088 5.04327 24.0088H9.12202C9.18617 24.0088 9.24969 23.9961 9.30896 23.9716C9.36823 23.947 9.42208 23.911 9.46744 23.8656C9.5128 23.8202 9.54878 23.7662 9.57333 23.7069C9.59788 23.6476 9.61051 23.584 9.61051 23.5198V13.5638H13.2657C13.3953 13.5638 13.5195 13.5123 13.6111 13.4206C13.7027 13.3289 13.7542 13.2045 13.7542 13.0748V9.12878C13.7542 8.99883 13.7026 8.87419 13.6108 8.7823C13.519 8.69041 13.3945 8.63878 13.2647 8.63878H9.60851V6.33078C9.60851 5.22078 9.87224 4.65778 11.3167 4.65778H13.4145C13.5441 4.65778 13.6684 4.60626 13.76 4.51456C13.8516 4.42285 13.903 4.29847 13.903 4.16878V0.503782C13.9036 0.438761 13.8912 0.374283 13.8666 0.314108C13.8419 0.253932 13.8056 0.199262 13.7597 0.153283C13.7138 0.107305 13.6591 0.070937 13.599 0.0462999C13.5389 0.0216629 13.4745 0.0092491 13.4096 0.00978209Z" fill="white"/>
</svg>
