<svg width="24" height="24" viewBox="0 0 24 24" fill="none" xmlns="http://www.w3.org/2000/svg">
<path d="M11.9874 5.83594C10.7711 5.83673 9.58232 6.19846 8.5713 6.87542C7.56029 7.55237 6.77245 8.51416 6.30734 9.63922C5.84224 10.7643 5.72075 12.0021 5.95824 13.1963C6.19573 14.3904 6.78153 15.4873 7.64161 16.3483C8.50168 17.2093 9.59742 17.7957 10.7903 18.0334C11.9833 18.2712 13.2198 18.1495 14.3437 17.684C15.4676 17.2184 16.4284 16.4297 17.1046 15.4176C17.7809 14.4056 18.1422 13.2155 18.143 11.9979C18.1437 11.1885 17.9849 10.387 17.6758 9.63907C17.3667 8.89116 16.9133 8.21161 16.3416 7.63928C15.7698 7.06696 15.091 6.61309 14.3439 6.30365C13.5967 5.99422 12.796 5.83528 11.9874 5.83594ZM11.9874 15.9909C11.1971 15.9909 10.4246 15.7563 9.76747 15.3168C9.11036 14.8773 8.5982 14.2526 8.29577 13.5217C7.99333 12.7908 7.9142 11.9865 8.06838 11.2106C8.22256 10.4347 8.60313 9.72192 9.16196 9.16251C9.72079 8.6031 10.4328 8.22214 11.2079 8.0678C11.983 7.91346 12.7864 7.99267 13.5166 8.29542C14.2467 8.59817 14.8708 9.11086 15.3099 9.76866C15.7489 10.4265 15.9833 11.1998 15.9833 11.9909C15.9833 13.0518 15.5623 14.0692 14.8129 14.8194C14.0636 15.5695 13.0472 15.9909 11.9874 15.9909Z" fill="white"/>
<path d="M16.9306 0.075C14.7249 -0.025 9.26158 -0.025 7.05388 0.075C5.18844 0.0415017 3.38355 0.737876 2.02312 2.016C-0.282479 4.324 0.0122145 7.434 0.0122145 11.999C0.0122145 16.667 -0.247515 19.705 2.02312 21.978C4.33771 24.289 7.49242 23.986 11.9877 23.986C16.6069 23.986 18.2013 23.986 19.8346 23.356C22.0553 22.493 23.7305 20.506 23.8953 16.937C23.9952 14.728 23.9952 9.26 23.8953 7.05C23.6955 2.837 21.4389 0.282 16.9266 0.074L16.9306 0.075ZM20.422 20.446C18.9105 21.959 16.8137 21.824 11.9628 21.824C6.96797 21.824 4.97005 21.898 3.50358 20.431C1.82033 18.754 2.12501 16.061 2.12501 11.978C2.12501 6.453 1.5586 2.478 7.09783 2.19C8.37051 2.145 8.74512 2.13 11.9488 2.13L11.9937 2.16C17.3172 2.16 21.4938 1.602 21.7446 7.146C21.8015 8.411 21.8145 8.791 21.8145 11.993C21.8145 16.935 21.9074 18.952 20.422 20.446Z" fill="white"/>
<path d="M18.3866 7.0323C19.1805 7.0323 19.8241 6.38803 19.8241 5.5933C19.8241 4.79856 19.1805 4.1543 18.3866 4.1543C17.5927 4.1543 16.9491 4.79856 16.9491 5.5933C16.9491 6.38803 17.5927 7.0323 18.3866 7.0323Z" fill="white"/>
</svg>
