<svg width="24" height="23" viewBox="0 0 24 23" fill="none" xmlns="http://www.w3.org/2000/svg">
<path d="M2.76739 0.00938902C2.40092 -0.0213934 2.03204 0.0237063 1.68375 0.141878C1.33545 0.26005 1.0152 0.448761 0.742951 0.696252C0.4707 0.943743 0.252284 1.24471 0.101313 1.5804C-0.0496579 1.91609 -0.129949 2.2793 -0.134555 2.64742C-0.139162 3.01553 -0.0679868 3.38064 0.0745359 3.72001C0.217059 4.05938 0.427874 4.36573 0.693846 4.61997C0.959817 4.87421 1.27525 5.0709 1.62047 5.19777C1.9657 5.32464 2.33333 5.37897 2.70046 5.35739H2.73342C3.10239 5.38999 3.4741 5.34568 3.8251 5.22726C4.1761 5.10884 4.49877 4.91887 4.77275 4.66935C5.04673 4.41982 5.26607 4.11616 5.41693 3.77752C5.56778 3.43888 5.64689 3.07262 5.64924 2.70184C5.6516 2.33106 5.57715 1.96382 5.43061 1.62328C5.28406 1.28275 5.0686 0.976321 4.79781 0.723331C4.52702 0.470341 4.20679 0.276282 3.85732 0.153402C3.50786 0.0305209 3.13674 -0.0185148 2.76739 0.00938902Z" fill="white"/>
<path d="M0.164062 7.47168H5.30371V22.9487H0.164062V7.47168Z" fill="white"/>
<path d="M17.9223 7.10742C15.1502 7.10742 13.2911 9.71542 13.2911 9.71542V7.47043H8.15149V22.9484H13.2911V14.3054C13.2712 13.88 13.3284 13.4544 13.46 13.0494C13.6524 12.5021 14.009 12.0277 14.4811 11.691C14.9532 11.3543 15.5176 11.1718 16.0972 11.1684C17.9573 11.1684 18.7005 12.5874 18.7005 14.6684V22.9484H23.8392V14.0734C23.8352 9.31943 21.2998 7.10742 17.9223 7.10742Z" fill="white"/>
</svg>
