<svg width="24" height="20" viewBox="0 0 24 20" fill="none" xmlns="http://www.w3.org/2000/svg">
<path d="M8.94368 19.6422C7.87954 19.6406 6.81712 19.5563 5.76599 19.3902C4.24374 19.092 2.77728 18.558 1.41952 17.8072L0 17.0292L1.5374 16.5232C3.21865 15.9702 4.24158 15.6232 5.50726 15.0892C4.86639 14.7749 4.29582 14.3338 3.83001 13.7926C3.3642 13.2513 3.01281 12.6212 2.79709 11.9402L2.43946 10.8532L2.73315 10.8982C2.48355 10.6461 2.25968 10.3697 2.06485 10.0732C1.46556 9.18674 1.16235 8.13296 1.19875 7.0632L1.26568 6.1142L1.83309 6.3342C1.59283 5.88062 1.41954 5.39456 1.31863 4.8912C1.07407 3.62742 1.28092 2.31781 1.90302 1.1912L2.3975 0.287201L3.05881 1.0872C5.0187 3.52739 7.84194 5.11846 10.9426 5.5302C10.8089 4.68365 10.908 3.81664 11.2293 3.0222C11.6182 2.10737 12.287 1.33957 13.1393 0.829201C14.1383 0.22359 15.2983 -0.0618327 16.4639 0.011201C17.6733 0.0744401 18.8249 0.549724 19.7274 1.3582C20.1344 1.24807 20.5346 1.11451 20.9262 0.958201C21.1879 0.858201 21.4856 0.747201 21.8572 0.619201L23.2218 0.148201L22.3287 2.7002C22.3877 2.7002 22.4486 2.6912 22.5115 2.6882L23.975 2.6242L23.1109 3.8072C23.061 3.8752 23.049 3.8942 23.031 3.9212C22.9611 4.0262 22.8742 4.1572 21.6884 5.7432C21.3837 6.16529 21.2357 6.68057 21.2698 7.2002C21.4005 9.07952 21.1449 10.9657 20.5186 12.7422C19.971 14.2366 19.0683 15.5751 17.8884 16.6422C16.3243 18.0036 14.4249 18.9214 12.3871 19.3002C11.254 19.5315 10.1001 19.6461 8.94368 19.6422Z" fill="white"/>
</svg>
